HIERARCHY
ROOT Hips
{
 OFFSET 0.000000 0.000000 0.000000
 CHANNELS 6 Xposition Yposition Zposition Yrotation Xrotation Zrotation
 JOINT Chest
 {
  OFFSET 0.000000 9.585900 0.002600
  CHANNELS 3 Yrotation Xrotation Zrotation
  JOINT Chest2
  {
   OFFSET 0.000000 9.601200 -0.005300
   CHANNELS 3 Yrotation Xrotation Zrotation
   JOINT Chest3
   {
    OFFSET 0.000000 9.561800 0.000000
    CHANNELS 3 Yrotation Xrotation Zrotation
    JOINT Chest4
    {
     OFFSET 0.000000 9.552100 0.000000
     CHANNELS 3 Yrotation Xrotation Zrotation
     JOINT Neck
     {
      OFFSET 0.000000 14.453000 0.000000
      CHANNELS 3 Yrotation Xrotation Zrotation
      JOINT Head
      {
       OFFSET 0.000000 8.936500 -0.011300
       CHANNELS 3 Yrotation Xrotation Zrotation
       End Site
       {
        OFFSET 0.000000 17.073600 -0.006000
       }
      }
     }
     JOINT RightCollar
     {
      OFFSET -2.921100 9.558500 0.000000
      CHANNELS 3 Yrotation Xrotation Zrotation
      JOINT RightShoulder
      {
       OFFSET -13.519700 0.000000 0.000000
       CHANNELS 3 Yrotation Xrotation Zrotation
       JOINT RightElbow
       {
        OFFSET 0.000000 -29.696600 0.000000
        CHANNELS 3 Yrotation Xrotation Zrotation
        JOINT RightWrist
        {
         OFFSET 0.000000 -24.004700 0.000000
         CHANNELS 3 Yrotation Xrotation Zrotation
         End Site
         {
          OFFSET 0.000000 -17.728500 0.000000
         }
        }
       }
      }
     }
     JOINT LeftCollar
     {
      OFFSET 2.921100 9.558500 0.000000
      CHANNELS 3 Yrotation Xrotation Zrotation
      JOINT LeftShoulder
      {
       OFFSET 13.519700 0.000000 0.000000
       CHANNELS 3 Yrotation Xrotation Zrotation
       JOINT LeftElbow
       {
        OFFSET 0.000000 -29.696600 0.000000
        CHANNELS 3 Yrotation Xrotation Zrotation
        JOINT LeftWrist
        {
         OFFSET 0.000000 -24.004700 0.000000
         CHANNELS 3 Yrotation Xrotation Zrotation
         End Site
         {
          OFFSET 0.000000 -17.728500 0.000000
         }
        }
       }
      }
     }
    }
   }
  }
 }
 JOINT RightHip
 {
  OFFSET -7.771700 -0.012900 -0.001300
  CHANNELS 3 Yrotation Xrotation Zrotation
  JOINT RightKnee
  {
   OFFSET 0.000000 -40.869800 0.001200
   CHANNELS 3 Yrotation Xrotation Zrotation
   JOINT RightAnkle
   {
    OFFSET 0.000000 -39.717900 0.002100
    CHANNELS 3 Yrotation Xrotation Zrotation
    JOINT RightToe
    {
     OFFSET 0.000000 -4.965400 11.033500
     CHANNELS 3 Yrotation Xrotation Zrotation
     End Site
     {
      OFFSET 0.000000 -1.423100 5.872300
     }
    }
   }
  }
 }
 JOINT LeftHip
 {
  OFFSET 7.771700 -0.012900 -0.001300
  CHANNELS 3 Yrotation Xrotation Zrotation
  JOINT LeftKnee
  {
   OFFSET 0.000000 -40.869800 0.001200
   CHANNELS 3 Yrotation Xrotation Zrotation
   JOINT LeftAnkle
   {
    OFFSET 0.000000 -39.717900 0.002100
    CHANNELS 3 Yrotation Xrotation Zrotation
    JOINT LeftToe
    {
     OFFSET 0.000000 -4.965400 11.033500
     CHANNELS 3 Yrotation Xrotation Zrotation
     End Site
     {
      OFFSET 0.000000 -1.423100 5.872300
     }
    }
   }
  }
 }
}
MOTION
Frames: 15
Frame Time: 0.008333
-76.769648 50.264656 -5.965356 160.781129 -11.900291 0.137180 2.768678 7.649764 0.986082 0.123174 0.376403 0.003316 0.214956 0.657275 0.006452 2.400644 7.284529 0.210182 0.443767 17.753474 0.337755 0.700239 -2.817594 0.469887 2.120029 8.205081 0.636291 -5.451813 -11.910355 -7.556606 -37.306664 -67.330576 61.180827 -2.025869 3.905091 -25.952716 -4.451713 4.365386 -0.954778 20.104214 -6.650883 2.030294 20.147844 -77.774538 -39.352606 1.274032 5.396660 13.343223 -3.656103 -69.132541 1.394875 -119.168158 80.844257 -118.280991 -2.966717 -14.997254 -0.176071 -0.270153 0.813484 -0.110390 -1.468063 -72.546404 23.847617 121.039687 79.313386 117.655602 -16.400998 -22.605508 1.384998 -0.309950 -0.959059 -0.120899
-76.771699 50.264791 -5.966652 160.784525 -11.899465 0.138439 2.777578 7.650496 0.986995 0.123053 0.376761 0.003414 0.214842 0.657473 0.006255 2.398668 7.286919 0.209521 0.437595 17.755837 0.335389 0.694803 -2.821692 0.472491 2.108869 8.203549 0.636279 -5.449999 -11.909616 -7.559350 -37.256871 -67.303455 61.127203 -2.017992 3.881878 -25.935970 -4.457375 4.367036 -0.951923 20.118437 -6.643336 2.034092 20.169025 -77.783225 -39.388613 1.277256 5.400290 13.347140 -3.646189 -69.133068 1.395287 -119.137592 80.839573 -118.263262 -2.973556 -14.996654 -0.160207 -0.273901 0.815325 -0.112784 -1.427789 -72.548706 23.809612 121.053469 79.318463 117.674456 -16.406469 -22.619813 1.388502 -0.347371 -0.943932 -0.122819
-76.772809 50.264854 -5.967403 160.788639 -11.895927 0.133599 2.776760 7.649510 0.992171 0.127162 0.378595 0.004948 0.211627 0.656572 0.004779 2.402648 7.289612 0.210182 0.432640 17.756924 0.332452 0.686544 -2.819920 0.469151 2.100147 8.199738 0.634143 -5.450635 -11.902901 -7.564003 -37.259510 -67.298222 61.131270 -2.013840 3.878104 -25.923653 -4.458570 4.366997 -0.950591 20.128359 -6.637407 2.042006 20.138603 -77.775640 -39.360496 1.282017 5.380045 13.332093 -3.656009 -69.136555 1.404606 -119.133310 80.837876 -118.258824 -2.974347 -14.995562 -0.160948 -0.270094 0.814261 -0.112001 -1.379210 -72.558711 23.766679 121.057063 79.323811 117.695984 -16.419530 -22.635701 1.391357 -0.307900 -0.927988 -0.122387
-76.775608 50.265034 -5.969437 160.793130 -11.895077 0.140701 2.776767 7.653653 0.990520 0.123041 0.374443 -0.000260 0.215276 0.658060 0.006343 2.405412 7.295550 0.215466 0.423723 17.752918 0.324731 0.680661 -2.814669 0.466523 2.090817 8.193258 0.626987 -5.453262 -11.895007 -7.567059 -37.269754 -67.299406 61.144503 -2.006604 3.881854 -25.916058 -4.460799 4.363676 -0.954864 20.124995 -6.636868 2.042923 20.115680 -77.773877 -39.335610 1.284607 5.380433 13.334697 -3.631569 -69.138358 1.377073 -119.138855 80.836709 -118.268257 -2.972247 -14.999121 -0.154583 -0.271060 0.817093 -0.114246 -1.340816 -72.562078 23.724981 121.105970 79.331922 117.748423 -16.418015 -22.645057 1.395867 -0.306912 -0.924775 -0.123671
-76.775316 50.266058 -5.974913 160.786544 -11.919180 0.139041 2.783802 7.678397 0.995944 0.123384 0.377112 0.003397 0.215355 0.658215 0.006554 2.410947 7.302572 0.213055 0.417232 17.749752 0.325481 0.676194 -2.810480 0.459380 2.083829 8.187961 0.624209 -5.454391 -11.887646 -7.570019 -37.286149 -67.305088 61.163233 -1.999467 3.885700 -25.912693 -4.465336 4.354850 -0.955341 20.136222 -6.628863 2.050423 20.133108 -77.774903 -39.364859 1.285560 5.391551 13.349455 -3.623458 -69.114522 1.377158 -119.172090 80.831886 -118.301996 -2.970599 -15.000807 -0.151306 -0.273396 0.812429 -0.116344 -1.300818 -72.540130 23.704566 121.216703 79.346334 117.864089 -16.402353 -22.672986 1.401137 -0.307741 -0.912976 -0.122185
-76.776269 50.266344 -5.977271 160.790653 -11.922033 0.135577 2.781688 7.685177 0.997465 0.125122 0.382580 0.001007 0.214904 0.654859 0.009265 2.413340 7.307707 0.215614 0.414279 17.750983 0.323964 0.657020 -2.800421 0.456907 2.081142 8.187756 0.624267 -5.464411 -11.890899 -7.567733 -37.279671 -67.313978 61.164070 -1.999682 3.885650 -25.910403 -4.462473 4.351286 -0.950317 20.135727 -6.625585 2.053583 20.180704 -77.777736 -39.419510 1.281095 5.404514 13.359385 -3.632132 -69.111669 1.382480 -119.186599 80.829449 -118.316279 -2.970732 -15.001987 -0.150819 -0.273327 0.810006 -0.117458 -1.298008 -72.536746 23.704610 121.257719 79.354323 117.907222 -16.404686 -22.696084 1.402705 -0.311965 -0.904591 -0.123376
-76.777110 50.266607 -5.979509 160.797073 -11.923924 0.130360 2.779065 7.697448 1.001427 0.122650 0.373520 0.000607 0.216869 0.660577 0.006973 2.410158 7.310407 0.223350 0.412053 17.764122 0.318865 0.656669 -2.820483 0.455292 2.084374 8.179892 0.618962 -5.476144 -11.887916 -7.569439 -37.291300 -67.321548 61.188080 -1.998915 3.896181 -25.904089 -4.448035 4.350626 -0.952653 20.128098 -6.623669 2.057110 20.162430 -77.781375 -39.401826 1.283116 5.403404 13.356555 -3.638702 -69.108841 1.383575 -119.200492 80.828412 -118.326677 -2.969948 -15.005489 -0.151112 -0.273200 0.809718 -0.118202 -1.304333 -72.532951 23.710358 121.305480 79.365969 117.952685 -16.388525 -22.720270 1.407451 -0.319734 -0.897048 -0.128939
-76.780054 50.266679 -5.981388 160.806969 -11.919225 0.135459 2.769486 7.701224 0.999345 0.124252 0.372065 -0.001527 0.216374 0.660839 0.007152 2.403162 7.313663 0.227416 0.410961 17.765356 0.314133 0.656413 -2.817665 0.445424 2.088436 8.170602 0.610075 -5.479386 -11.888583 -7.565280 -37.278606 -67.329072 61.188059 -1.998081 3.900093 -25.902090 -4.438336 4.342950 -0.957582 20.132093 -6.606482 2.070636 20.168880 -77.783756 -39.404944 1.285627 5.391189 13.341585 -3.619719 -69.118111 1.352243 -119.243501 80.825294 -118.364821 -2.972340 -15.001033 -0.156479 -0.269371 0.801992 -0.114637 -1.288087 -72.534445 23.686879 121.310081 79.370794 117.950238 -16.382536 -22.728937 1.414266 -0.285330 -0.914155 -0.129847
-76.781111 50.266795 -5.982615 160.812019 -11.914339 0.129876 2.763895 7.702941 1.007930 0.123571 0.379146 0.004024 0.215846 0.659720 0.006040 2.402070 7.306522 0.221812 0.409682 17.771307 0.313582 0.652497 -2.803003 0.434835 2.090852 8.164238 0.602738 -5.479641 -11.888684 -7.560036 -37.311923 -67.331335 61.230108 -1.990262 3.915769 -25.900991 -4.434097 4.338727 -0.960640 20.134992 -6.596450 2.076425 20.173882 -77.786298 -39.412379 1.285944 5.388401 13.337526 -3.633607 -69.123451 1.360994 -119.261072 80.825655 -118.378981 -2.975332 -14.999640 -0.158783 -0.267875 0.798276 -0.116302 -1.315492 -72.532948 23.709444 121.287486 79.369245 117.915785 -16.351142 -22.740161 1.411711 -0.302960 -0.912170 -0.133262
-76.782744 50.266955 -5.983937 160.812410 -11.908681 0.129379 2.762719 7.702739 1.011632 0.123384 0.380956 0.003894 0.216219 0.654329 0.003266 2.400849 7.310010 0.224096 0.409564 17.771512 0.311732 0.651769 -2.799918 0.431321 2.094579 8.168818 0.606755 -5.475987 -11.900742 -7.563228 -37.335082 -67.330853 61.253473 -1.994578 3.912217 -25.885864 -4.431532 4.336171 -0.960274 20.141302 -6.587053 2.078527 20.196670 -77.791160 -39.442386 1.287107 5.391867 13.335227 -3.634522 -69.129130 1.361043 -119.267638 80.826758 -118.384450 -2.977378 -15.001248 -0.160487 -0.265673 0.799131 -0.115939 -1.328925 -72.532629 23.722338 121.270111 79.369268 117.890199 -16.341945 -22.740096 1.408630 -0.290038 -0.916815 -0.130081
-76.784839 50.267294 -5.985979 160.814928 -11.906085 0.133497 2.759510 7.702287 1.008301 0.123602 0.385531 0.004086 0.215486 0.656212 0.007534 2.398513 7.312765 0.224309 0.409045 17.766119 0.306354 0.651891 -2.802499 0.428853 2.102891 8.163385 0.605828 -5.478637 -11.906986 -7.565568 -37.345556 -67.331161 61.263381 -1.999317 3.901916 -25.878274 -4.428779 4.326116 -0.958239 20.149537 -6.573890 2.075457 20.215457 -77.795989 -39.469849 1.287376 5.392800 13.331594 -3.618092 -69.135010 1.338417 -119.301611 80.826037 -118.414234 -2.975605 -14.998409 -0.162703 -0.264621 0.793698 -0.115843 -1.332496 -72.529989 23.725812 121.246522 79.365460 117.855997 -16.354087 -22.726929 1.411304 -0.283868 -0.928104 -0.127518
-76.787937 50.267652 -5.988153 160.819286 -11.902014 0.144418 2.753307 7.705181 0.995440 0.124900 0.383377 0.005655 0.215564 0.663785 0.008087 2.394626 7.311738 0.222000 0.408520 17.770443 0.308655 0.651797 -2.809447 0.427303 2.112740 8.160004 0.610806 -5.480172 -11.914358 -7.565693 -37.354083 -67.333052 61.270639 -2.001585 3.895221 -25.872388 -4.421313 4.318239 -0.949554 20.150002 -6.567990 2.069359 20.160614 -77.795411 -39.414352 1.294630 5.381197 13.323083 -3.582631 -69.140655 1.291141 -119.336245 80.827882 -118.443182 -2.971406 -15.003353 -0.166416 -0.265903 0.795579 -0.115569 -1.316116 -72.530105 23.710127 121.205170 79.348204 117.796828 -16.386206 -22.702670 1.426892 -0.301431 -0.945136 -0.131789
-76.789044 50.268039 -5.989491 160.821377 -11.896779 0.144268 2.753430 7.704991 0.997446 0.123274 0.379630 0.003926 0.216790 0.668639 0.010490 2.392899 7.309362 0.219561 0.409555 17.774176 0.312740 0.646245 -2.808144 0.425062 2.115451 8.160459 0.611810 -5.477513 -11.917978 -7.559717 -37.378474 -67.338476 61.294540 -1.997868 3.899955 -25.871819 -4.416717 4.321237 -0.947651 20.149429 -6.568368 2.066091 20.114578 -77.789304 -39.369965 1.290833 5.373688 13.318628 -3.583013 -69.145448 1.283382 -119.355017 80.829673 -118.452789 -2.972844 -15.006357 -0.175754 -0.259519 0.796318 -0.114882 -1.324963 -72.533891 23.721656 121.195444 79.343514 117.779931 -16.404624 -22.681953 1.431780 -0.304479 -0.955801 -0.130882
-76.790235 50.268390 -5.990414 160.826943 -11.888515 0.144370 2.748280 7.701254 0.997192 0.123501 0.379911 0.004240 0.218707 0.671703 0.013343 2.394140 7.308022 0.220247 0.407613 17.775867 0.313946 0.636831 -2.809019 0.425944 2.113065 8.157537 0.607252 -5.477235 -11.923875 -7.554168 -37.402240 -67.342310 61.339067 -1.995521 3.910551 -25.896173 -4.413894 4.320583 -0.947032 20.144467 -6.568584 2.063550 20.111496 -77.788203 -39.367476 1.289319 5.386819 13.322532 -3.571555 -69.152355 1.267114 -119.380608 80.834991 -118.470684 -2.982589 -15.011458 -0.178652 -0.255043 0.799940 -0.113143 -1.324938 -72.542154 23.721745 121.167112 79.334082 117.744784 -16.423387 -22.661316 1.437229 -0.312598 -0.962716 -0.130837
-76.792524 50.268774 -5.991592 160.833898 -11.878863 0.152140 2.742950 7.700525 0.993173 0.124954 0.383942 0.006503 0.217010 0.667527 0.010510 2.396641 7.309899 0.224891 0.401836 17.770073 0.307619 0.629031 -2.806930 0.427506 2.110878 8.154861 0.597262 -5.474879 -11.931826 -7.545886 -37.405743 -67.347888 61.345162 -1.997506 3.903163 -25.887528 -4.415183 4.317053 -0.948586 20.147772 -6.566213 2.058834 20.118859 -77.792575 -39.379812 1.290685 5.386467 13.321574 -3.546689 -69.162225 1.232227 -119.408842 80.837782 -118.494473 -2.984802 -15.018941 -0.179353 -0.253788 0.804795 -0.113368 -1.288444 -72.552267 23.682575 121.148138 79.333366 117.724970 -16.442726 -22.644591 1.440456 -0.308903 -0.970995 -0.126550
